# xmcd
#
# Track frame offsets:
#	150
#	16320
#	26370
#	33760
#	47899
#	59599
#	70787
#	87710
#	98105
#	112704
#	120878
#	138298
#	147450
#	157475
#	166907
#	178684
#	185841
#	199886
#	210086
#	229538
#	243136
#	250981
#	258736
#	272938
#	287996
#	300248
#	314590
#
# Disc length: 4371 seconds
#
# Revision: 1
# Processed by: cddbd v1.5.1PL0 Copyright (c) Steve Scherf et al.
# Submitted via: audiograbber 1.83.01
#
DISCID=8411111b
DTITLE=Andrei Makarevich - Zolataja Kollekcija
DYEAR=2001
DGENRE=Blues
TTITLE0=Kafe "LIRA"
TTITLE1=Pauzy
TTITLE2=Druzba
TTITLE3=Perekriostok
TTITLE4=Raskinulos more shiroko
TTITLE5=Moi prijatel xudoznik
TTITLE6=Besplatno tolko ptichki pajut
TTITLE7=Nas ecio ne zagnuli gody
TTITLE8=V mire sveta
TTITLE9=Bratskij valsok
TTITLE10=Vremia
TTITLE11=Posviacenie teatru
TTITLE12=Podrazanie Vertinskomu
TTITLE13=Pamiati Vysockamu
TTITLE14=Otpusti Menia
TTITLE15=Pesnia pro pervyx
TTITLE16=Solvki
TTITLE17=Lica
TTITLE18=My budem vmeste
TTITLE19=Gde evo nosit teper
TTITLE20=Ja xotel by proiti cto dorog
TTITLE21=Muzikanty uxodiat iz mira
TTITLE22=Kalendar
TTITLE23=Po naznacheniju
TTITLE24=Malenkij gorad
TTITLE25=Varjete
TTITLE26=Do skorovo brat
EXTD=
EXTT0=
EXTT1=
EXTT2=
EXTT3=
EXTT4=
EXTT5=
EXTT6=
EXTT7=
EXTT8=
EXTT9=
EXTT10=
EXTT11=
EXTT12=
EXTT13=
EXTT14=
EXTT15=
EXTT16=
EXTT17=
EXTT18=
EXTT19=
EXTT20=
EXTT21=
EXTT22=
EXTT23=
EXTT24=
EXTT25=
EXTT26=
PLAYORDER=
